<?xml version="1.0" encoding="UTF-8" standalone="no"?>
<svg
   version="1.0"
   width="1254.000000pt"
   height="1254.000000pt"
   viewBox="0 0 1254.000000 1254.000000"
   preserveAspectRatio="xMidYMid meet"
   id="svg5"
   sodipodi:docname="newcowcolor.svg"
   inkscape:version="1.4.3 (0d15f75042, 2025-12-25)"
   inkscape:export-filename="newcowcolor.png"
   inkscape:export-xdpi="96"
   inkscape:export-ydpi="96"
   xmlns:inkscape="http://www.inkscape.org/namespaces/inkscape"
   xmlns:sodipodi="http://sodipodi.sourceforge.net/DTD/sodipodi-0.dtd"
   xmlns="http://www.w3.org/2000/svg"
   xmlns:svg="http://www.w3.org/2000/svg">
  <defs
     id="defs5" />
  <sodipodi:namedview
     id="namedview5"
     pagecolor="#ffffff"
     bordercolor="#000000"
     borderopacity="0.25"
     inkscape:showpageshadow="2"
     inkscape:pageopacity="0.0"
     inkscape:pagecheckerboard="0"
     inkscape:deskcolor="#d1d1d1"
     inkscape:document-units="pt"
     inkscape:zoom="1.1477273"
     inkscape:cx="836"
     inkscape:cy="752.35644"
     inkscape:window-width="2560"
     inkscape:window-height="1413"
     inkscape:window-x="1920"
     inkscape:window-y="27"
     inkscape:window-maximized="1"
     inkscape:current-layer="g5" />
  <g
     transform="translate(0.000000,1254.000000) scale(0.100000,-0.100000)"
     fill="#000000"
     stroke="none"
     id="g5">
    <ellipse
       style="fill:#f8f7f5;fill-opacity:1;stroke-width:337.5;stroke-linecap:round;stroke-linejoin:round"
       id="path11"
       cx="6224.2573"
       cy="-7116.2373"
       transform="scale(0.99999998,-0.99999998)"
       rx="1891.7822"
       ry="1810.099" />
    <ellipse
       style="fill:#f8f7f5;fill-opacity:1;stroke-width:337.5;stroke-linecap:round;stroke-linejoin:round"
       id="path12"
       cx="7560.5942"
       cy="-5714.5542"
       transform="scale(0.99999998,-0.99999998)"
       rx="725.3465"
       ry="1578.1189" />
    <ellipse
       style="fill:#f8f7f5;fill-opacity:1;stroke-width:337.5;stroke-linecap:round;stroke-linejoin:round"
       id="path12-5"
       cx="4914.3564"
       cy="-5799.2822"
       transform="scale(0.99999998,-0.99999998)"
       rx="725.3465"
       ry="1578.1189" />
    <path
       d="m 8085,8040 c 3.7925,1.2716 9,19 28,43 111,138 203,330 253,531 21,83 27,134 31,281 5,158 3,194 -16,295 -36,189 -96,345 -182,471 -50,73 -96,103 -150,96 -88,-12 -113,-51 -154,-252 -50,-245 -137,-455 -245,-595 -28,-36 -62,-81 -77,-100 -27,-36 -167,-155 -180,-154 571.1206,-522.3482 502.794,-679.4416 692,-616 z"
       id="path6"
       style="display:inline;fill:#bb9e75;fill-opacity:1"
       sodipodi:nodetypes="sccccccccccs"
       inkscape:label="ohr_r" />
    <path
       d="m 4407.3408,8040 c -3.7925,1.2716 -9,19 -28,43 -111,138 -203,330 -253,531 -21,83 -27,134 -31,281 -5,158 -3,194 16,295 36,189 96,345 182,471 50,73 96,103 150,96 88,-12 113,-51 154,-252 50,-245 137,-455 245,-595 28,-36 62,-81 77,-100 27,-36 167,-155 180,-154 -571.1206,-522.3482 -502.794,-679.4416 -692,-616 z"
       id="path7"
       style="display:inline;fill:#bb9e75;fill-opacity:1"
       sodipodi:nodetypes="sccccccccccs"
       inkscape:label="ohr_l" />
    <ellipse
       style="fill:#f7b5ad;fill-opacity:1;stroke-width:350.918;stroke-linecap:round;stroke-linejoin:round"
       id="path8"
       cx="6242.0088"
       cy="-4667.5112"
       transform="scale(0.99999998,-0.99999998)"
       rx="1875.4017"
       ry="1126.6407"
       inkscape:label="schnauze" />
    <path
       d="m 4401,8048 c 6,-11 -20,2 -68,33 -136,89 -288,152 -458,190 -92,21 -443,18 -569,-5 -215,-39 -499,-136 -594,-202 -156,-109 -129,-291 83,-573 267,-354 646,-548 1035,-528 120,6 282,35 375,67 44,15 55,16 55,5 0,-14 -15,-145 -96,-865 -78,-692 -71,-1006 29,-1280 17,-47 19,-77 18,-212 -2,-108 2,-182 13,-240 51,-270 197,-509 408,-668 99,-75 292,-170 413,-205 208,-60 187,-59 1195,-59 918,0 926,0 1039,23 156,30 250,62 372,124 301,153 491,387 582,717 16,60 21,111 23,257 3,169 5,189 33,280 40,133 58,224 72,378 19,212 6,415 -71,1105 -44,393 -70,653 -66,657 2,2 29,-6 62,-17 134,-46 250,-64 424,-63 144,0 177,3 261,26 191,50 346,133 508,270 186,158 361,412 392,571 21,101 -29,193 -136,253 -131,72 -356,144 -585,185 -99,17 -453,18 -535,0 -156,-34 -349,-113 -463,-191 -34,-22 -64,-41 -67,-41 -4,0 -231.4489,344.5528 -692,616 -5,0 -57,24 -116,53 -196,95 -424,158 -692,192 -58,7 -207,13 -355,13 -212,-1 -279,-4 -399,-23 -263,-40 -521,-119 -678,-207 l -62,-34 c 0,0 -221.6252,-98.8325 -690,-602 z m 2075,702 c 489,-39 853,-188 1124,-459 187,-187 310,-410 370,-667 31,-133 48,-259 90,-664 22,-212 61,-572 86,-800 43,-381 47,-436 48,-670 1,-178 -3,-278 -13,-330 -10,-52 -16,-70 -22,-60 -121,206 -201,309 -328,417 -303,259 -704,408 -1251,465 -149,15 -523,15 -670,0 -600,-63 -1006,-222 -1315,-514 -102,-96 -194,-212 -247,-308 -18,-33 -36,-60 -39,-60 -16,0 -34,209 -32,385 1,193 6,247 82,905 22,190 54,485 71,655 36,356 50,460 85,601 101,408 359,725 743,914 318,157 762,226 1218,190 z m -1,-3070 c 596,-42 1016,-210 1273,-510 84,-98 138,-192 181,-315 35,-99 36,-102 36,-260 0,-140 -3,-170 -24,-235 -45,-145 -111,-249 -224,-357 -127,-121 -289,-201 -484,-240 -110,-22 -407,-24 -763,-5 -183,9 -297,10 -450,2 -423,-21 -563,-23 -670,-11 -259,30 -443,109 -599,255 -166,157 -251,356 -251,585 0,471 372,856 976,1010 180,46 280,61 559,84 91,8 309,6 440,-3 z"
       id="path1"
       style="display:inline"
       sodipodi:nodetypes="ccccccccsccccccscccccccscccccccccscccccccccsccccsccccccscccccccccsccsccccsccc" />
    <path
       d="M4760 7252 c0 -48 73 -212 121 -273 l28 -36 -25 -62 c-38 -95 -48 -167 -34 -252 23 -136 109 -252 230 -312 59 -29 73 -32 160 -32 82 0 103 4 151 26 92 43 174 130 209 219 7 19 14 36 15 37 1 2 24 -8 51 -21 69 -33 99 -38 144 -26 41 11 110 70 110 93 0 7 -37 28 -82 46 -120 48 -556 290 -928 514 -144 86 -150 90 -150 79z"
       id="path2" />
    <path
       d="M7485 7128 c-501 -298 -771 -446 -882 -482 -29 -10 -53 -22 -53 -26 0 -5 17 -27 38 -49 62 -65 132 -72 232 -21 l35 18 29 -61 c36 -77 113 -154 191 -193 54 -26 70 -29 160 -29 91 0 105 3 154 29 207 109 298 358 203 560 l-30 64 25 34 c50 67 131 251 121 278 -2 5 -102 -50 -223 -122z"
       id="path3" />
    <path
       d="M5349 5020 c-51 -27 -105 -93 -126 -154 -29 -83 -24 -249 11 -350 47 -137 122 -239 213 -288 95 -52 176 -46 251 18 132 113 144 360 29 579 -38 71 -126 164 -182 190 -58 28 -151 30 -196 5z"
       id="path4" />
    <path
       d="M6925 5017 c-68 -32 -159 -133 -202 -222 -95 -201 -80 -430 36 -538 90 -84 187 -85 300 -2 95 70 166 193 195 337 20 97 20 141 0 227 -30 136 -107 212 -218 219 -48 2 -71 -2 -111 -21z"
       id="path5" />
  </g>
</svg>
